<?xml version="1.0" encoding="utf-8"?>
<!-- Generator: Adobe Illustrator 19.0.0, SVG Export Plug-In . SVG Version: 6.00 Build 0)  -->
<svg version="1.1" id="Layer_1" xmlns="http://www.w3.org/2000/svg" xmlns:xlink="http://www.w3.org/1999/xlink" x="0px" y="0px"
	 viewBox="0 0 600 600" style="enable-background:new 0 0 600 600;" xml:space="preserve" fill="#21262D">
<path id="XMLID_121_" fill="#21262D" d="M516.6,488.9c-3.8-18.2-7-35.1-10.9-51.9c-6.2-26.6-17.9-51.3-27.9-76.6c-8.1-20.5-18.2-39.8-31.7-57.3
	c-10.2-13.2-21.6-24.9-38.6-29.8c-29.4-8.4-53.7-1-73.7,21.7c-5.1,5.8-9.8,12-14.9,17.7c-3.3,3.7-6.8,7.1-10.6,10.2
	c-7.8,6.3-17.7,6.5-25-0.2c-6.6-6-12.1-13.2-18.4-19.6c-7.5-7.6-14.8-15.4-23.1-22.1c-15.5-12.6-33.5-12.5-52.1-9.1
	c-20.4,3.8-33.6,17.1-45.4,32.6c-13.6,17.9-23.4,37.9-31.8,58.7c-11.2,27.9-23.3,55.4-29.4,85c-2.7,13.2-5.1,26.4-7.6,39.7
	c-0.3,0-0.7,0.1-0.8-0.1c-14.4-13.4-27.5-28.1-38.8-44.3c-1.6-2.3-1.9-4.3-1.3-7c5.1-21.4,14.6-41.2,22.4-61.6
	c16.6-43.2,42.3-81,70-117.6c8.3-10.9,13.3-22.4,14.6-35.9c1.6-16.1,4.2-32,6.3-48c1.6-12,2.2-24.1,4.7-35.9c7.5-35,26-63,55.7-83.3
	c11.9-8.1,25.5-11.5,39.4-13.7c8.6-1.4,17.2-2.7,26.4-4.1c0.7,65.7,1.4,131.1,2.1,196.5c4.5-9.9,3.5-20.2,3.5-30.4
	c-0.2-27.7-0.5-55.4-0.7-83.1c-0.3-27.7-0.5-55.4-0.8-83.1c0-1.5,0-3,0-5.2c11.7,0,23,0,34.8,0c0.1,1.6,0.3,3,0.2,4.3
	c-0.5,59.9-1,119.8-1.3,179.8c0,6.1,1.3,12.1,1.9,18.2c0.5,0,0.9-0.1,1.4-0.1c0.7-65.4,1.4-130.7,2.1-196.7c7.2,1.1,14,2.1,20.9,3.1
	c16.2,2.5,32.2,5.5,45.9,15.3c20.9,14.9,37.3,33.5,47,57.6c7,17.4,10.4,35.4,12,54c1.4,16.5,4,32.9,6.2,49.3
	c0.6,4.3,1.7,8.6,1.9,12.9c0.5,9.1,4.5,16.6,9.9,23.6c19.9,25.7,38.8,52.3,53.9,81c11.8,22.3,21,45.9,30.6,69.2
	c4.6,11.1,7.7,22.8,11.2,34.4c0.5,1.8,0.1,4.7-1,6.1c-9.6,11.9-19.4,23.6-29.3,35.3C523.5,481.9,520.2,485.1,516.6,488.9z
	 M447.3,269.2c-8-7.6-24.8-18-38.5-23c-8-2.9-16.3-5.2-24.7-6.2c-14.3-1.8-28,1.9-40.9,7.6c-6,2.6-11.1,7.3-16.7,11.1
	c0.2,0.3,0.5,0.7,0.7,1c4-1.9,8-3.9,12.2-5.5c25.6-10,51.1-12.1,76.6,0.4C426,259.3,436.2,263.9,447.3,269.2z M264.6,259
	c0.1-0.1,0.3-0.3,0.4-0.4c-5.2-3.6-10-8.2-15.6-10.7c-15.6-6.9-32-10.7-49.2-7.3c-14.6,2.9-27.9,9.3-40.5,17.1
	c-5.1,3.2-9.9,6.8-14.9,10.2c10.7-4.2,21-8.9,31.2-13.9c20.3-10,41.4-10.6,62.7-4.6C247.6,252.1,256,255.9,264.6,259z"/>
<path id="XMLID_113_" fill="#21262D" d="M380.5,481.1c-13.8-13.4-27.4-26.6-40.9-40c-9.2-9.1-18.2-18.4-27.4-27.5c-1.7-1.7-2.4-3.1-2-5.8
	c1.8-13.1-6.9-21.6-18.8-18.6c-7,1.8-11.7,9.6-10.2,17.6c0.6,3-0.1,4.9-2.2,7c-22.1,22.1-44,44.3-66.1,66.4
	c-0.4,0.4-0.8,0.7-1.7,1.4c-11.2-27.8-22.4-55.4-33.5-83c-0.3,0.1-0.6,0.2-0.9,0.3c8.7,30.2,17.5,60.4,26.2,90.6
	c9.5-3.4,14-1.3,16.2,8c-5-6.6-10.3-6.3-16.3-3.2c-4.6,2.4-7.1,0.9-8.6-3.9c-3.3-10.4-6.6-20.9-9.8-31.3c-0.7-2.2-1.6-3.3-4.2-3.7
	c-30.9-4-60.4,1.5-89,13.1c-1.9,0.8-3.8,1.6-6.9,2.9c1.7-7.4,3-13.9,4.7-20.3c10-37.5,23.2-73.8,39.5-109
	c9.3-19.9,21.6-37.8,38.2-52.5c9.8-8.8,21.5-13.5,34.2-16.3c0.8-0.2,1.7,0,2.7,0c-4.1,4.8-8.3,9.2-11.9,14.2
	c-3.5,4.9-6.6,10.1-9.4,15.4c-2.8,5.2-1.5,8.9,3.8,11.3c15.3,6.7,30.7,13.7,47.4,15.7c10.9,1.3,22.1,0.2,33.9,0.2
	c-1.3-6.7-2.6-13-3.8-19.2c0.2-0.2,0.4-0.3,0.7-0.5c2.9,3.1,5.9,6.1,8.7,9.3c13.1,14.7,30.9,15,44.4,0.6c3.2-3.4,6.2-6.8,10-9.8
	c-1.3,6.3-2.6,12.6-3.9,19.4c14.8,0.7,29.3,2.6,43.4-1.9c12.7-4.1,25.1-8.8,37.5-13.7c6.1-2.4,7.1-5.9,4.1-11.8
	c-5.1-10.1-11.5-19.3-19.7-27.2c-0.6-0.5-1.6-0.7-2.3-1c0.4-0.5,0.7-1,1.1-1.5c2.5,0.5,5.1,1,7.6,1.6c17.6,4.3,30.9,14.8,42.3,28.4
	c15.8,18.9,26.4,40.5,35.6,63.2c12.7,31.1,23.4,62.8,31.5,95.4c0.6,2.3,0.9,4.7,1.3,7c0.1,0.7,0,1.4,0,2.1
	c-8.9-3.1-17.5-6.4-26.3-9.1c-22.6-6.8-45.6-9.1-69.2-6c-2.6,0.3-3.2,1.8-3.8,3.7c-3.2,10.3-6.4,20.6-9.6,30.9
	c-1.7,5.5-4,6.4-9.7,4.1c-2.5-1-5.4-2.2-7.9-1.8c-2.5,0.4-4.8,2.5-7,3.8c0.8-7.5,6.5-10.2,15.7-6.5c8.9-30.8,17.8-61.4,26.7-92.1
	c-0.2-0.1-0.5-0.2-0.7-0.2C403,425.5,391.7,453.5,380.5,481.1z M257.8,379.5c-15.6,3.6-25.1,12.9-31.3,26
	c-4.8,10.1-7.7,20.7-8.9,31.8c-0.3,2.5-0.6,5-0.9,7.5c-0.3,2.3-0.5,4.6-0.7,6.9c1-0.8,1.3-1.7,1.6-2.6c3.6-12.8,5.9-25.9,12-38
	c5.7-11.3,12.7-20.8,25.3-25c2.4-0.8,4.7-1.9,6.9-3.2c2.1-1.2,4-2.7,6-4c-2.1-1.5-4-3.5-6.3-4.4c-16.8-6.6-34-7-51.2-2.2
	c-6.3,1.7-11,1.6-15.9-3c-3.7-3.5-8.3-6.2-12.5-9.2c5.8,6.5,11.7,12.7,17.8,18.7c0.9,0.8,2.7,1.2,4,1c6.3-1.2,12.6-2.8,18.9-4
	C234.2,373.8,245.7,374.7,257.8,379.5z M410.1,359.9c-5.6,4.1-11.5,8.1-17.1,12.5c-2.3,1.8-4.3,2-6.9,1.2c-10-3.1-20.2-4.4-30.7-4.1
	c-9.5,0.3-18.7,2.1-27.3,6.1c-1.6,0.7-2.8,2.4-4.2,3.6c1.4,1.1,2.6,2.4,4.2,3.1c4.7,2.3,9.4,4.4,14.1,6.5c5.3,2.3,9.6,5.8,12.8,10.6
	c6.1,9.2,11.1,18.8,13.8,29.6c1.9,7.5,4,15,6,22.5c0.4-0.1,0.7-0.1,1.1-0.2c-1-7.3-1.5-14.7-3-21.9c-4.8-22.6-12.8-43-38.9-50.2
	c9.5-3.2,18.5-5.5,27.9-4.1c8.6,1.3,17.1,3.2,25.6,4.7c1.4,0.2,3.5,0,4.4-0.9C398,372.7,404,366.3,410.1,359.9z M180.8,325.8
	c-0.2,0.4-0.3,0.6-0.3,0.6c1,1.5,2.1,2.9,3.1,4.4c9.3,13,20.3,22.9,37.7,23.5c14.6,0.5,28.5-1.3,41.6-7.8c1.4-0.7,2.6-1.6,4.5-2.8
	c-1.3,0-1.8-0.1-2.1,0c-14,4.5-28.4,4.8-42.9,4c-10.4-0.6-20.1-3.5-28.3-10.6C189.8,333.3,185.3,329.6,180.8,325.8z M324,343.4
	c1.1,0.9,1.4,1.4,1.9,1.6c1.7,0.9,3.4,1.9,5.2,2.7c13.2,6,27,7.2,41.5,6.3c19.5-1.2,28.9-14.8,38.7-28.5c-1.2,0.6-2.2,1.6-3.2,2.5
	c-9.3,8.1-18.3,16.8-31.3,18.6c-14.6,2-29.1,2-43.5-1.1C330.4,344.9,327.6,344.2,324,343.4z M275.8,349.5c13.5-6.2,27.1-6,40.6,0
	C304,336.5,288.3,336.5,275.8,349.5z M312,358.5c-9.8-10.1-22.8-10-30.4-0.1C291.9,353.5,301.5,353.8,312,358.5z"/>
<path id="XMLID_101_" fill="#21262D" d="M228.3,504.2c44.8,0,88.6,0,133,0c-1.3,0.9-2.1,1.5-3,2c-19.9,10.5-39.8,21-59.6,31.6
	c-2.6,1.4-4.4,1.2-6.9-0.1c-20-10.5-40.1-20.9-60.1-31.4C230.9,505.9,230,505.3,228.3,504.2z"/>
<path id="XMLID_92_" fill="#21262D" d="M223.7,490.7c47.3,0,94.7,0,142,0c0.1,0.3,0.3,0.6,0.2,0.8c-1.8,7.9-1.8,8-10,8c-40.9,0-81.8,0-122.7,0
	C224.9,499.5,224.9,499.5,223.7,490.7z"/>
<path id="XMLID_91_" fill="#21262D" d="M287.9,423.1c5.3,0,10.2,0,15.4,0c0,20.4,0,40.7,0,61.4c-5,0-10,0-15.4,0
	C287.9,464.1,287.9,443.8,287.9,423.1z"/>
<path id="XMLID_89_" fill="#21262D" d="M326.4,484.6c-4.3,0-8.3,0-12.5,0c0-18.5,0-36.7,0-56.3c4.4,4.6,8.2,8.5,11.9,12.4c0.4,0.4,0.6,1.3,0.6,1.9
	C326.4,456.6,326.4,470.5,326.4,484.6z"/>
<path id="XMLID_88_" fill="#21262D" d="M277.6,428.9c0,18.9,0,37.1,0,55.6c-3.9,0-7.8,0-12,0c-0.1-1.4-0.2-2.8-0.2-4.1c0-11.8-0.1-23.6,0.1-35.4
	c0-2.2,1.2-4.8,2.6-6.5C270.8,435.2,274,432.4,277.6,428.9z"/>
<path id="XMLID_87_" fill="#21262D" d="M350.1,484.7c-4.5,0-8.4,0-12.5,0c0-11.4,0-22.7,0-35c4.3,4.3,8,8,11.6,11.8c0.5,0.5,0.8,1.5,0.8,2.3
	C350.2,470.7,350.1,477.5,350.1,484.7z"/>
<path id="XMLID_86_" fill="#21262D" d="M253.5,484.7c-4.1,0-8,0-12.3,0c0-7.1-0.1-13.9,0.1-20.7c0-1.1,0.9-2.3,1.7-3.2c3.3-3.4,6.8-6.7,10.5-10.3
	C253.5,461.9,253.5,473.1,253.5,484.7z"/>
</svg>
