<svg xmlns="http://www.w3.org/2000/svg" viewBox="0 0 1500 669" style="enable-background:new 0 0 1500 669" xml:space="preserve"><path d="M0 209.1v104.6h305.9c35.6 0 81-32.9 81-87.3 0-21.9 8.4-36.1-17.3-65.1L330.5 115C308 94.1 333.1 94.1 352 94.1h129.2v219.7h102.4V94.1h138.1V0H274.6c-54.4 0-81 52.2-79.5 79.4 1.5 27.2 6.5 61.4 51.7 102.5 41.2 37.5-20.4 27.2-26.6 27.2H0zM948.2 0H782.9l-92.6 313.7h103.1l16.7-43.9h108.8l16.1 43.9h101L948.2 0zM833.1 194.5l35.6-115.1 33.5 115.1h-69.1zm529.3 14.6c-39.7 0-39.7-14.6-39.7-14.6 34.1 0 64.3-49.6 64.3-100.4S1337.3 0 1297.5 0h-222.3v313.7h113V209.1s48.1 56.5 73.2 79.5 27.2 25.1 61.3 25.1H1500V209.1h-137.6zm-102.5-73.2h-71.7V79.4h71.7c32.8 0 38.5 56.5 0 56.5zM0 353.5h115.6l29.3 104.6 27.2-104.6h121.3l31.4 104.6 31.4-104.6h100.4l-92 313.8h-92l-40.3-148.5-45.4 148.5H92.6L0 353.5zm693.8 1.8H528.5L435.9 669H539l16.7-43.9h108.8l16.1 43.9h101l-87.8-313.7zM578.7 549.7l35.6-115.1 33.5 115.1h-69.1zm785.8-102.1c-18.8 0-39.3 2.2-16.9 23.1l39.1 46.4c25.7 28.9 25.3 41 25.3 62.9 0 54.4-53.8 87.3-89.4 87.3l-247.2 1.7c-34.1 0-36.1-2.1-61.3-25.1-25.1-23-73.2-79.5-73.2-79.5V669H828V355.2h222.3c39.7 0 89.4 43.3 89.4 94.1s-30.2 100.4-64.3 100.4c0 0 15 15.1 40.1 15.1s121.8.1 121.8.1c6.2 0 67.8 10.3 26.6-27.2-45.2-41.1-50.2-75.3-51.7-102.5-1.5-27.2 22-81.7 76.4-81.7H1500v94.1h-135.5zm-351.8 43.5H941v-56.5h71.7c32.9 0 38.6 56.5 0 56.5z" style="fill-rule:evenodd;clip-rule:evenodd"/></svg>